<svg width="512" height="512" viewBox="0 0 512 512" fill="none" xmlns="http://www.w3.org/2000/svg">
<path d="M467.812 431.851L431.183 370.795C414.266 342.614 405.327 310.336 405.327 277.483V224C405.327 156.48 360.271 99.371 298.66 80.96V42.667C298.66 19.136 279.524 0 255.993 0C232.462 0 213.326 19.136 213.326 42.667V80.96C151.716 99.371 106.66 156.48 106.66 224V277.483C106.66 310.336 97.721 342.592 80.825 370.774L44.196 431.83C42.212 435.137 42.169 439.233 44.068 442.582C45.967 445.931 49.487 448.001 53.327 448.001H458.66C462.5 448.001 466.041 445.932 467.94 442.604C469.839 439.275 469.775 435.136 467.812 431.851Z" fill="#BABFC5"/>
<path d="M188.815 469.333C200.847 494.464 226.319 512 255.993 512C285.667 512 311.14 494.464 323.172 469.333H188.815V469.333Z" fill="#BABFC5"/>
</svg>
