<svg width="289" height="289" viewBox="0 0 289 289" fill="none" xmlns="http://www.w3.org/2000/svg">
<g clip-path="url(#clip0)">
<path d="M144.445 0C65.9491 0 2.08911 63.86 2.08911 142.362C2.08911 168.486 18.6401 205.586 24.3291 217.557C25.2701 232.683 23.7521 249.669 21.0001 253.787C15.3981 260.793 14.1741 269.392 17.7311 276.794C19.9011 281.308 25.5901 288.89 39.3021 288.89C53.1171 288.89 81.9991 280.416 96.5261 275.863C107.187 278.925 129.302 284.712 144.444 284.712C222.941 284.712 286.801 220.852 286.801 142.355C286.802 63.86 222.942 0 144.445 0ZM39.3031 269.859L39.2761 250.822C39.2811 250.822 39.2921 250.822 39.3031 250.822V269.859ZM144.445 246.645C134.176 246.645 112.98 241.206 102.037 237.779L96.2341 235.962L90.4581 237.838C81.3041 240.813 70.8341 243.886 61.6361 246.301C63.4581 231.561 62.5501 217.039 62.0001 210.827L61.6741 207.248L60.0861 204.044C52.3791 188.526 40.1631 158.068 40.1631 142.365C40.1631 84.863 86.9441 38.076 144.446 38.076C201.948 38.076 248.728 84.86 248.728 142.362C248.728 199.864 201.947 246.645 144.445 246.645Z" fill="#A9ACAF"/>
</g>
<defs>
<clipPath id="clip0">
<rect width="288.89" height="288.89" fill="white"/>
</clipPath>
</defs>
</svg>
