<svg width="468" height="468" viewBox="0 0 468 468" fill="none" xmlns="http://www.w3.org/2000/svg">
<g clip-path="url(#clip0)">
<path d="M399.697 108.075C398.712 78.191 398.164 48.218 398.458 18.319C398.469 16.988 398.255 15.813 397.955 14.706C398.545 8.19102 394.711 1.31002 386.362 1.52902C281.035 4.29102 175.733 0.168022 70.4011 2.18781e-05C61.6341 -0.0149781 57.8001 7.68602 58.8811 14.439C58.5281 15.615 58.2901 16.879 58.3041 18.319C59.8961 144.004 64.213 324.594 64.352 450.304C64.352 453.117 65.1511 455.413 66.4311 457.221C67.2051 462.552 71.0351 467.265 77.9581 467.092C123.484 465.965 169.029 465.229 214.522 462.999C255.064 461.014 305.596 463.675 344.346 450.441C358.067 445.753 370.345 438.828 380.867 428.798C400.102 410.461 406.669 385.849 408.324 359.91C409.918 334.998 406.983 308.871 406.399 285.919C404.897 226.625 401.647 167.357 399.697 108.075ZM333.049 342.662C325.641 342.703 318.475 348.492 321.786 357.378C328.448 375.263 331.495 397.474 321.253 414.576C308.862 435.259 286.758 434.695 265.745 437.346C252.888 438.966 239.228 438.108 226.269 438.479C216.192 438.763 88.506 441.876 88.506 442.374C88.204 321.376 84.205 145.483 82.588 24.503C179.836 24.924 277.054 28.263 374.297 26.184C373.967 115.117 382.661 258.719 383.255 347.62C368.168 342.867 352.579 340.851 336.477 341.928C335.217 342.002 334.1 342.291 333.049 342.662ZM342.55 425.352C352.315 408.717 354.757 388.289 349.674 366.159C361.435 366.616 373.033 368.886 384.017 373.542C384.063 373.685 384.093 373.832 384.144 373.964C380.584 400.19 363.989 416.283 342.55 425.352Z" fill="#9E9E9E"/>
</g>
<defs>
<clipPath id="clip0">
<rect width="467.098" height="467.098" fill="white"/>
</clipPath>
</defs>
</svg>
