<svg width="500" height="513" viewBox="0 0 500 513" fill="none" xmlns="http://www.w3.org/2000/svg">
<path d="M490.647 312.107L443.586 275.307C445.045 262.463 445.045 249.495 443.586 236.651L490.69 199.83C499.517 192.721 501.876 180.255 496.258 170.411L447.298 85.782C441.659 75.876 429.649 71.55 418.989 75.585L363.522 97.9C353.099 90.338 341.934 83.855 330.199 78.551L321.687 19.628C320.152 8.31599 310.447 -0.0920071 299.031 0.000992858H200.898C189.577 -0.0670071 179.95 8.24699 178.37 19.457L169.837 78.55C158.138 83.905 146.991 90.393 136.557 97.921L80.94 75.563C70.39 71.404 58.391 75.678 52.844 85.568L3.84098 170.347C-1.92803 180.207 0.446976 192.81 9.40898 199.894L56.47 236.694C54.997 249.537 54.997 262.507 56.47 275.35L9.36598 312.15C0.523975 319.249 -1.84602 331.722 3.77698 341.569L52.716 426.22C58.348 436.133 70.365 440.462 81.025 436.417L136.492 414.102C146.924 421.668 158.096 428.158 169.836 433.473L178.369 492.353C179.871 503.635 189.516 512.047 200.897 512.001H299.03C310.372 512.092 320.03 503.775 321.622 492.545L330.155 433.452C341.853 428.095 352.999 421.607 363.435 414.081L419.115 436.46C429.665 440.609 441.658 436.338 447.211 426.455L496.363 341.335C501.866 331.505 499.447 319.139 490.647 312.107ZM249.964 362.667C191.054 362.667 143.297 314.911 143.297 256C143.297 197.089 191.053 149.333 249.964 149.333C308.875 149.333 356.631 197.089 356.631 256C356.56 314.882 308.845 362.597 249.964 362.667Z" fill="#BABFC5"/>
</svg>
