<svg width="444" height="444" viewBox="0 0 444 444" fill="none" xmlns="http://www.w3.org/2000/svg">
<path d="M7 0H188C191.867 0 195 3.13281 195 7V188C195 191.867 191.867 195 188 195H7C3.13281 195 0 191.867 0 188V7C0 3.13281 3.13281 0 7 0Z" fill="#BABFC5"/>
<path d="M256 0H437C440.867 0 444 3.13281 444 7V188C444 191.867 440.867 195 437 195H256C252.133 195 249 191.867 249 188V7C249 3.13281 252.133 0 256 0Z" fill="#BABFC5"/>
<path d="M7 249H188C191.867 249 195 252.133 195 256V437C195 440.867 191.867 444 188 444H7C3.13281 444 0 440.867 0 437V256C0 252.133 3.13281 249 7 249Z" fill="#BABFC5"/>
<path d="M256 249H437C440.867 249 444 252.133 444 256V437C444 440.867 440.867 444 437 444H256C252.133 444 249 440.867 249 437V256C249 252.133 252.133 249 256 249Z" fill="#BABFC5"/>
</svg>
