<svg width="385" height="384" viewBox="0 0 385 384" fill="none" xmlns="http://www.w3.org/2000/svg">
<path d="M192.536 85.334C216.1 85.334 235.203 66.2313 235.203 42.667C235.203 19.1027 216.1 0 192.536 0C168.972 0 149.869 19.1027 149.869 42.667C149.869 66.2313 168.972 85.334 192.536 85.334Z" fill="#BABFC5"/>
<path d="M192.536 234.667C216.1 234.667 235.203 215.564 235.203 192C235.203 168.436 216.1 149.333 192.536 149.333C168.972 149.333 149.869 168.436 149.869 192C149.869 215.564 168.972 234.667 192.536 234.667Z" fill="#BABFC5"/>
<path d="M192.536 384C216.1 384 235.203 364.897 235.203 341.333C235.203 317.769 216.1 298.666 192.536 298.666C168.972 298.666 149.869 317.769 149.869 341.333C149.869 364.897 168.972 384 192.536 384Z" fill="#BABFC5"/>
</svg>
