<svg width="512" height="512" viewBox="0 0 512 512" fill="none" xmlns="http://www.w3.org/2000/svg">
<path d="M437.02 74.98C388.668 26.629 324.38 0 256.001 0C187.622 0 123.333 26.629 74.982 74.98C26.631 123.331 0 187.62 0 256.001C0 324.382 26.63 388.668 74.981 437.02C123.332 485.371 187.621 512 256 512C324.379 512 388.667 485.371 437.019 437.02C485.372 388.668 512 324.381 512 256C512 187.619 485.372 123.333 437.02 74.98ZM415.843 96.159C429.513 109.828 441.205 124.946 450.8 141.158H351.288C346.9 119.035 341.219 98.517 334.338 80.282C327.934 63.313 320.634 48.861 312.631 37.075C351.341 47.017 386.841 67.156 415.843 96.159ZM331.998 256C331.998 285.053 330.031 313.247 326.273 339.511H185.729C181.97 313.246 180.005 285.052 180.005 256C180.005 226.438 182.04 197.762 185.929 171.106H326.074C329.962 197.763 331.998 226.438 331.998 256ZM256.001 29.949C273.112 29.949 291.922 52.719 306.317 90.857C312.036 106.009 316.866 122.926 320.742 141.157H191.259C195.134 122.926 199.964 106.009 205.684 90.857C220.079 52.719 238.889 29.949 256.001 29.949ZM96.159 96.158C125.161 67.155 160.661 47.016 199.372 37.074C191.369 48.86 184.069 63.313 177.665 80.281C170.783 98.516 165.101 119.034 160.714 141.157H61.201C70.797 124.946 82.489 109.827 96.159 96.158ZM29.95 256.001C29.95 226.425 35.605 197.72 46.38 171.107H155.701C151.992 197.999 150.054 226.628 150.054 256.001C150.054 284.869 151.923 313.024 155.508 339.512H45.827C35.414 313.288 29.95 285.065 29.95 256.001ZM96.159 415.841C82.102 401.785 70.139 386.195 60.395 369.46H160.441C164.865 392.111 170.639 413.104 177.664 431.718C184.069 448.687 191.368 463.139 199.371 474.925C160.661 464.983 125.161 444.844 96.159 415.841ZM256.001 482.051C238.889 482.051 220.08 459.281 205.685 421.143C199.822 405.61 194.897 388.218 190.974 369.46H321.028C317.105 388.217 312.18 405.609 306.317 421.143C291.922 459.282 273.112 482.051 256.001 482.051ZM415.843 415.842C386.84 444.845 351.341 464.984 312.63 474.926C320.633 463.14 327.933 448.687 334.337 431.719C341.362 413.104 347.136 392.112 351.56 369.461H451.607C441.862 386.196 429.899 401.785 415.843 415.842ZM356.492 339.511C360.078 313.023 361.947 284.867 361.947 256C361.946 226.628 360.008 197.997 356.3 171.106H465.622C476.397 197.719 482.052 226.424 482.052 256C482.052 285.066 476.588 313.287 466.175 339.511H356.492V339.511Z" fill="#BABFC5"/>
</svg>
