<svg width="512" height="512" viewBox="0 0 512 512" fill="none" xmlns="http://www.w3.org/2000/svg">
<g clip-path="url(#clip0)">
<path d="M65.339 474.702C115.07 524.433 195.98 524.433 245.711 474.702L435.622 284.792C441.483 278.931 441.483 269.436 435.622 263.575C429.761 257.714 420.266 257.714 414.405 263.575L224.495 453.485C187.63 490.321 123.422 490.321 86.557 453.485C48.534 415.462 48.534 353.584 86.557 315.561L351.741 47.391C374.423 24.709 413.941 24.709 436.622 47.391C460.022 70.791 460.022 108.858 436.622 132.258L182.046 389.835C173.548 398.333 158.72 398.333 150.221 389.835C141.445 381.059 141.445 366.772 150.221 357.995L394.174 111.042C399.234 105.982 399.234 94.886 394.174 89.825C388.313 83.964 378.818 83.964 372.957 89.825L129.005 336.779C108.52 357.264 108.52 390.568 129.005 411.052C148.844 430.891 183.454 430.862 203.263 411.052L457.839 153.476C492.665 118.65 492.665 61.002 457.839 26.175C440.827 9.16302 418.219 3.05176e-05 394.175 3.05176e-05C370.131 3.05176e-05 347.521 9.16304 330.524 26.174L65.34 294.345C15.609 344.076 15.609 424.972 65.339 474.702Z" fill="#A9ACAF"/>
</g>
<defs>
<clipPath id="clip0">
<rect width="512" height="512" fill="white" transform="translate(512 512) rotate(-180)"/>
</clipPath>
</defs>
</svg>
