<svg width="439" height="439" viewBox="0 0 439 439" fill="none" xmlns="http://www.w3.org/2000/svg">
<g clip-path="url(#clip0)">
<path d="M164.453 0H18.276C13.324 0 9.04098 1.807 5.42498 5.424C1.80798 9.04 0.000976562 13.322 0.000976562 18.271V420.262C0.000976562 425.21 1.80798 429.495 5.42498 433.109C9.04398 436.726 13.327 438.537 18.276 438.537H164.457C169.406 438.537 173.688 436.726 177.304 433.109C180.921 429.496 182.728 425.211 182.728 420.262V18.271C182.728 13.319 180.921 9.04 177.3 5.424C173.685 1.807 169.402 0 164.453 0Z" fill="#BABFC5"/>
<path d="M433.113 5.424C429.496 1.807 425.215 0 420.267 0H274.086C269.137 0 264.849 1.807 261.239 5.424C257.618 9.039 255.807 13.322 255.807 18.271V420.262C255.807 425.21 257.618 429.495 261.239 433.109C264.848 436.726 269.136 438.537 274.086 438.537H420.267C425.215 438.537 429.496 436.726 433.114 433.109C436.728 429.496 438.535 425.211 438.535 420.262V18.271C438.534 13.319 436.73 9.04 433.113 5.424Z" fill="#BABFC5"/>
</g>
<defs>
<clipPath id="clip0">
<rect width="438.536" height="438.536" fill="white"/>
</clipPath>
</defs>
</svg>
